<svg width="57" height="57" viewBox="0 0 57 57" fill="none" xmlns="http://www.w3.org/2000/svg">
<path d="M28.5 0C12.7691 0 0 12.7691 0 28.5C0 44.2309 12.7681 57 28.5 57C44.2319 57 57 44.2309 57 28.5C57 12.7691 44.2319 0 28.5 0ZM28.5 1.46112C43.4419 1.46112 55.5379 13.5581 55.5379 28.499C55.5379 43.4399 43.4409 55.5369 28.5 55.5369C13.5591 55.5369 1.46208 43.4399 1.46208 28.499C1.46208 13.5581 13.5591 1.46112 28.5 1.46112ZM20.4614 15.3461V41.6539L42.384 28.5L20.4614 15.3461Z" fill="white"/>
</svg>
